ffmpeg started on 2025-05-12 at 16:53:29
Report written to "D:\Convert\FFMetrics\reports\ssim_report-6.txt"
Log level: 32
Command line:
ffmpeg -hide_banner -nostdin -i "G:\\\xc0\xed\xe8\xec\xe5\\\xce\xed\xe3\xee\xe8\xed\xe3\xe8\\!_35_\xcb\xe5\xf2\xee_2024\\DreamCast\\\xcc\xee\xff \xef\xee\xe4\xf0\xf3\xe3\xe0-\xee\xeb\xe5\xed\xe8\xf5\xe0, \xcd\xee\xea\xee\xf2\xe0\xed\\[DC] Shikanoko Nokonoko Koshitantan - 12_Telegram_HEVC.mkv" -i "G:\\\xc0\xed\xe8\xec\xe5\\\xce\xed\xe3\xee\xe8\xed\xe3\xe8\\!_35_\xcb\xe5\xf2\xee_2024\\DreamCast\\\xcc\xee\xff \xef\xee\xe4\xf0\xf3\xe3\xe0-\xee\xeb\xe5\xed\xe8\xf5\xe0, \xcd\xee\xea\xee\xf2\xe0\xed\\[DC] Shikanoko Nokonoko Koshitantan - 12_Telegram.mp4" -lavfi "[0:v]settb=AVTB,setpts=PTS-STARTPTS,format=pix_fmts=yuv420p10,fps=24000/1001,scale=1920:1080:flags=bicubic[main];[1:v]settb=AVTB,setpts=PTS-STARTPTS,format=pix_fmts=yuv420p,fps=24000/1001,scale=1920:1080:flags=bicubic[ref];[main][ref]ssim=eof_action=endall:stats_file='D\\:/Convert/FFMetrics/logs/ssim_logfile-6.txt'" -f null -
Input #0, matroska,webm, from 'G:\Аниме\Онгоинги\!_35_Лето_2024\DreamCast\Моя подруга-олениха, Нокотан\[DC] Shikanoko Nokonoko Koshitantan - 12_Telegram_HEVC.mkv':
  Metadata:
    COMPATIBLE_BRANDS: isomiso2avc1mp41
    MAJOR_BRAND     : isom
    MINOR_VERSION   : 512
    ENCODER         : Lavf61.7.100
  Duration: 00:23:41.65, start: -0.021000, bitrate: 1627 kb/s
  Stream #0:0: Video: hevc (Main 10), yuv420p10le(tv, bt709, progressive), 1920x1080 [SAR 1:1 DAR 16:9], 23.98 fps, 23.98 tbr, 1k tbn (default)
      Metadata:
        HANDLER_NAME    : VideoHandler
        VENDOR_ID       : [0][0][0][0]
        ENCODER         : Lavc61.19.100 libx265
        BPS             : 1429928
        DURATION        : 00:23:41.544708333
        NUMBER_OF_FRAMES: 34083
        NUMBER_OF_BYTES : 254088364
        _STATISTICS_WRITING_APP: mkvpropedit v66.0.0 ('Josie') 64-bit
        _STATISTICS_WRITING_DATE_UTC: 2025-05-08 12:10:23
        _STATISTICS_TAGS: BPS DURATION NUMBER_OF_FRAMES NUMBER_OF_BYTES
  Stream #0:1: Audio: aac (LC), 48000 Hz, stereo, fltp (default)
      Metadata:
        HANDLER_NAME    : SoundHandler
        VENDOR_ID       : [0][0][0][0]
        ENCODER         : Lavc61.19.100 aac
        BPS             : 193279
        DURATION        : 00:23:41.653000000
        NUMBER_OF_FRAMES: 66641
        NUMBER_OF_BYTES : 34347012
        _STATISTICS_WRITING_APP: mkvpropedit v66.0.0 ('Josie') 64-bit
        _STATISTICS_WRITING_DATE_UTC: 2025-05-08 12:10:23
        _STATISTICS_TAGS: BPS DURATION NUMBER_OF_FRAMES NUMBER_OF_BYTES
Input #1, mov,mp4,m4a,3gp,3g2,mj2, from 'G:\Аниме\Онгоинги\!_35_Лето_2024\DreamCast\Моя подруга-олениха, Нокотан\[DC] Shikanoko Nokonoko Koshitantan - 12_Telegram.mp4':
  Metadata:
    major_brand     : isom
    minor_version   : 512
    compatible_brands: isomiso2avc1mp41
    encoder         : Lavf61.1.100
  Duration: 00:23:41.61, start: 0.000000, bitrate: 3898 kb/s
  Stream #1:0[0x1](und): Video: h264 (High) (avc1 / 0x31637661), yuv420p(tv, bt709, progressive), 1920x1080 [SAR 1:1 DAR 16:9], 3750 kb/s, 23.98 fps, 23.98 tbr, 24k tbn (default)
      Metadata:
        handler_name    : VideoHandler
        vendor_id       : [0][0][0][0]
        encoder         : Lavc61.3.100 h264_qsv
  Stream #1:1[0x2](und): Audio: aac (HE-AACv2) (mp4a / 0x6134706D), 48000 Hz, stereo, fltp, 144 kb/s (default)
      Metadata:
        handler_name    : SoundHandler
        vendor_id       : [0][0][0][0]
Stream mapping:
  Stream #0:0 (hevc) -> settb:default
  Stream #1:0 (h264) -> settb:default
  ssim:default -> Stream #0:0 (wrapped_avframe)
  Stream #0:1 -> #0:1 (aac (native) -> pcm_s16le (native))
Output #0, null, to 'pipe:':
  Metadata:
    COMPATIBLE_BRANDS: isomiso2avc1mp41
    MAJOR_BRAND     : isom
    MINOR_VERSION   : 512
    encoder         : Lavf61.7.100
  Stream #0:0: Video: wrapped_avframe, yuv420p10le(tv, bt709, progressive), 1920x1080 [SAR 1:1 DAR 16:9], q=2-31, 200 kb/s, 23.98 fps, 23.98 tbn
      Metadata:
        encoder         : Lavc61.19.100 wrapped_avframe
  Stream #0:1: Audio: pcm_s16le, 48000 Hz, stereo, s16, 1536 kb/s (default)
      Metadata:
        HANDLER_NAME    : SoundHandler
        VENDOR_ID       : [0][0][0][0]
        _STATISTICS_TAGS: BPS DURATION NUMBER_OF_FRAMES NUMBER_OF_BYTES
        BPS             : 193279
        DURATION        : 00:23:41.653000000
        NUMBER_OF_FRAMES: 66641
        NUMBER_OF_BYTES : 34347012
        _STATISTICS_WRITING_APP: mkvpropedit v66.0.0 ('Josie') 64-bit
        _STATISTICS_WRITING_DATE_UTC: 2025-05-08 12:10:23
        encoder         : Lavc61.19.100 pcm_s16le
frame=  174 fps=0.0 q=-0.0 size=N/A time=00:00:07.25 bitrate=N/A speed=  14x    frame=  320 fps=307 q=-0.0 size=N/A time=00:00:13.34 bitrate=N/A speed=12.8x    frame=  494 fps=318 q=-0.0 size=N/A time=00:00:20.60 bitrate=N/A speed=13.3x    frame=  671 fps=324 q=-0.0 size=N/A time=00:00:27.98 bitrate=N/A speed=13.5x    frame=  888 fps=344 q=-0.0 size=N/A time=00:00:37.03 bitrate=N/A speed=14.4x    frame= 1094 fps=352 q=-0.0 size=N/A time=00:00:45.62 bitrate=N/A speed=14.7x    frame= 1261 fps=349 q=-0.0 size=N/A time=00:00:52.59 bitrate=N/A speed=14.6x    frame= 1432 fps=346 q=-0.0 size=N/A time=00:00:59.72 bitrate=N/A speed=14.4x    frame= 1626 fps=350 q=-0.0 size=N/A time=00:01:07.81 bitrate=N/A speed=14.6x    frame= 1838 fps=356 q=-0.0 size=N/A time=00:01:16.65 bitrate=N/A speed=14.8x    frame= 2038 fps=359 q=-0.0 size=N/A time=00:01:25.00 bitrate=N/A speed=  15x    frame= 2277 fps=368 q=-0.0 size=N/A time=00:01:34.96 bitrate=N/A speed=15.3x    frame= 2465 fps=368 q=-0.0 size=N/A time=00:01:42.81 bitrate=N/A speed=15.3x    frame= 2661 fps=368 q=-0.0 size=N/A time=00:01:50.98 bitrate=N/A speed=15.4x    frame= 2866 fps=371 q=-0.0 size=N/A time=00:01:59.53 bitrate=N/A speed=15.5x    frame= 3088 fps=374 q=-0.0 size=N/A time=00:02:08.83 bitrate=N/A speed=15.6x    frame= 3284 fps=375 q=-0.0 size=N/A time=00:02:16.97 bitrate=N/A speed=15.6x    frame= 3485 fps=375 q=-0.0 size=N/A time=00:02:25.35 bitrate=N/A speed=15.6x    frame= 3734 fps=381 q=-0.0 size=N/A time=00:02:35.73 bitrate=N/A speed=15.9x    frame= 4014 fps=389 q=-0.0 size=N/A time=00:02:47.41 bitrate=N/A speed=16.2x    frame= 4259 fps=393 q=-0.0 size=N/A time=00:02:57.63 bitrate=N/A speed=16.4x    frame= 4457 fps=393 q=-0.0 size=N/A time=00:03:05.89 bitrate=N/A speed=16.4x    frame= 4683 fps=395 q=-0.0 size=N/A time=00:03:15.32 bitrate=N/A speed=16.5x    frame= 4958 fps=400 q=-0.0 size=N/A time=00:03:26.78 bitrate=N/A speed=16.7x    frame= 5218 fps=405 q=-0.0 size=N/A time=00:03:37.63 bitrate=N/A speed=16.9x    frame= 5444 fps=406 q=-0.0 size=N/A time=00:03:47.06 bitrate=N/A speed=16.9x    frame= 5651 fps=406 q=-0.0 size=N/A time=00:03:55.69 bitrate=N/A speed=16.9x    frame= 5862 fps=406 q=-0.0 size=N/A time=00:04:04.49 bitrate=N/A speed=16.9x    frame= 6125 fps=410 q=-0.0 size=N/A time=00:04:15.46 bitrate=N/A speed=17.1x    frame= 6378 fps=412 q=-0.0 size=N/A time=00:04:26.01 bitrate=N/A speed=17.2x    frame= 6627 fps=415 q=-0.0 size=N/A time=00:04:36.40 bitrate=N/A speed=17.3x    frame= 6842 fps=414 q=-0.0 size=N/A time=00:04:45.36 bitrate=N/A speed=17.3x    frame= 7059 fps=415 q=-0.0 size=N/A time=00:04:54.41 bitrate=N/A speed=17.3x    frame= 7317 fps=417 q=-0.0 size=N/A time=00:05:05.17 bitrate=N/A speed=17.4x    frame= 7552 fps=418 q=-0.0 size=N/A time=00:05:14.98 bitrate=N/A speed=17.5x    frame= 7796 fps=420 q=-0.0 size=N/A time=00:05:25.15 bitrate=N/A speed=17.5x    frame= 8008 fps=420 q=-0.0 size=N/A time=00:05:34.00 bitrate=N/A speed=17.5x    frame= 8235 fps=420 q=-0.0 size=N/A time=00:05:43.46 bitrate=N/A speed=17.5x    frame= 8454 fps=420 q=-0.0 size=N/A time=00:05:52.60 bitrate=N/A speed=17.5x    frame= 8696 fps=421 q=-0.0 size=N/A time=00:06:02.69 bitrate=N/A speed=17.6x    frame= 8936 fps=423 q=-0.0 size=N/A time=00:06:12.70 bitrate=N/A speed=17.6x    frame= 9159 fps=423 q=-0.0 size=N/A time=00:06:22.00 bitrate=N/A speed=17.6x    frame= 9417 fps=425 q=-0.0 size=N/A time=00:06:32.76 bitrate=N/A speed=17.7x    frame= 9655 fps=425 q=-0.0 size=N/A time=00:06:42.69 bitrate=N/A speed=17.7x    frame= 9888 fps=426 q=-0.0 size=N/A time=00:06:52.41 bitrate=N/A speed=17.8x    frame=10141 fps=427 q=-0.0 size=N/A time=00:07:02.96 bitrate=N/A speed=17.8x    frame=10350 fps=427 q=-0.0 size=N/A time=00:07:11.68 bitrate=N/A speed=17.8x    frame=10567 fps=427 q=-0.0 size=N/A time=00:07:20.73 bitrate=N/A speed=17.8x    frame=10799 fps=427 q=-0.0 size=N/A time=00:07:30.40 bitrate=N/A speed=17.8x    frame=11024 fps=427 q=-0.0 size=N/A time=00:07:39.79 bitrate=N/A speed=17.8x    frame=11288 fps=429 q=-0.0 size=N/A time=00:07:50.80 bitrate=N/A speed=17.9x    frame=11524 fps=430 q=-0.0 size=N/A time=00:08:00.64 bitrate=N/A speed=17.9x    frame=11755 fps=430 q=-0.0 size=N/A time=00:08:10.28 bitrate=N/A speed=17.9x    frame=11992 fps=431 q=-0.0 size=N/A time=00:08:20.16 bitrate=N/A speed=  18x    frame=12220 fps=431 q=-0.0 size=N/A time=00:08:29.67 bitrate=N/A speed=  18x    frame=12452 fps=431 q=-0.0 size=N/A time=00:08:39.35 bitrate=N/A speed=  18x    frame=12651 fps=430 q=-0.0 size=N/A time=00:08:47.65 bitrate=N/A speed=  18x    frame=12887 fps=431 q=-0.0 size=N/A time=00:08:57.49 bitrate=N/A speed=  18x    frame=13160 fps=432 q=-0.0 size=N/A time=00:09:08.88 bitrate=N/A speed=  18x    frame=13360 fps=432 q=-0.0 size=N/A time=00:09:17.22 bitrate=N/A speed=  18x    frame=13617 fps=433 q=-0.0 size=N/A time=00:09:27.94 bitrate=N/A speed=18.1x    frame=13872 fps=434 q=-0.0 size=N/A time=00:09:38.57 bitrate=N/A speed=18.1x    frame=14099 fps=434 q=-0.0 size=N/A time=00:09:48.04 bitrate=N/A speed=18.1x    frame=14344 fps=435 q=-0.0 size=N/A time=00:09:58.26 bitrate=N/A speed=18.1x    frame=14584 fps=435 q=-0.0 size=N/A time=00:10:08.27 bitrate=N/A speed=18.2x    frame=14829 fps=436 q=-0.0 size=N/A time=00:10:18.49 bitrate=N/A speed=18.2x    frame=15055 fps=436 q=-0.0 size=N/A time=00:10:27.91 bitrate=N/A speed=18.2x    frame=15277 fps=436 q=-0.0 size=N/A time=00:10:37.17 bitrate=N/A speed=18.2x    frame=15483 fps=435 q=-0.0 size=N/A time=00:10:45.77 bitrate=N/A speed=18.1x    frame=15720 fps=436 q=-0.0 size=N/A time=00:10:55.65 bitrate=N/A speed=18.2x    frame=15950 fps=436 q=-0.0 size=N/A time=00:11:05.24 bitrate=N/A speed=18.2x    frame=16196 fps=436 q=-0.0 size=N/A time=00:11:15.50 bitrate=N/A speed=18.2x    frame=16405 fps=436 q=-0.0 size=N/A time=00:11:24.22 bitrate=N/A speed=18.2x    frame=16627 fps=436 q=-0.0 size=N/A time=00:11:33.48 bitrate=N/A speed=18.2x    frame=16872 fps=436 q=-0.0 size=N/A time=00:11:43.70 bitrate=N/A speed=18.2x    frame=17084 fps=436 q=-0.0 size=N/A time=00:11:52.54 bitrate=N/A speed=18.2x    frame=17329 fps=436 q=-0.0 size=N/A time=00:12:02.76 bitrate=N/A speed=18.2x    frame=17569 fps=437 q=-0.0 size=N/A time=00:12:12.77 bitrate=N/A speed=18.2x    frame=17806 fps=437 q=-0.0 size=N/A time=00:12:22.65 bitrate=N/A speed=18.2x    frame=18051 fps=438 q=-0.0 size=N/A time=00:12:32.87 bitrate=N/A speed=18.3x    frame=18313 fps=438 q=-0.0 size=N/A time=00:12:43.80 bitrate=N/A speed=18.3x    frame=18544 fps=439 q=-0.0 size=N/A time=00:12:53.43 bitrate=N/A speed=18.3x    frame=18702 fps=437 q=-0.0 size=N/A time=00:13:00.02 bitrate=N/A speed=18.2x    frame=18900 fps=436 q=-0.0 size=N/A time=00:13:08.28 bitrate=N/A speed=18.2x    frame=19144 fps=437 q=-0.0 size=N/A time=00:13:18.46 bitrate=N/A speed=18.2x    frame=19399 fps=437 q=-0.0 size=N/A time=00:13:29.09 bitrate=N/A speed=18.2x    frame=19656 fps=438 q=-0.0 size=N/A time=00:13:39.81 bitrate=N/A speed=18.3x    frame=19895 fps=438 q=-0.0 size=N/A time=00:13:49.78 bitrate=N/A speed=18.3x    frame=20109 fps=438 q=-0.0 size=N/A time=00:13:58.71 bitrate=N/A speed=18.3x    frame=20329 fps=438 q=-0.0 size=N/A time=00:14:07.88 bitrate=N/A speed=18.3x    frame=20543 fps=438 q=-0.0 size=N/A time=00:14:16.81 bitrate=N/A speed=18.3x    frame=20783 fps=438 q=-0.0 size=N/A time=00:14:26.82 bitrate=N/A speed=18.3x    frame=20941 fps=437 q=-0.0 size=N/A time=00:14:33.41 bitrate=N/A speed=18.2x    frame=21102 fps=435 q=-0.0 size=N/A time=00:14:40.12 bitrate=N/A speed=18.2x    frame=21288 fps=435 q=-0.0 size=N/A time=00:14:47.88 bitrate=N/A speed=18.1x    frame=21463 fps=434 q=-0.0 size=N/A time=00:14:55.18 bitrate=N/A speed=18.1x    frame=21680 fps=433 q=-0.0 size=N/A time=00:15:04.23 bitrate=N/A speed=18.1x    frame=21922 fps=434 q=-0.0 size=N/A time=00:15:14.33 bitrate=N/A speed=18.1x    frame=22170 fps=434 q=-0.0 size=N/A time=00:15:24.67 bitrate=N/A speed=18.1x    frame=22394 fps=434 q=-0.0 size=N/A time=00:15:34.01 bitrate=N/A speed=18.1x    frame=22672 fps=435 q=-0.0 size=N/A time=00:15:45.61 bitrate=N/A speed=18.2x    frame=22909 fps=436 q=-0.0 size=N/A time=00:15:55.49 bitrate=N/A speed=18.2x    frame=23142 fps=436 q=-0.0 size=N/A time=00:16:05.21 bitrate=N/A speed=18.2x    frame=23395 fps=436 q=-0.0 size=N/A time=00:16:15.76 bitrate=N/A speed=18.2x    frame=23622 fps=436 q=-0.0 size=N/A time=00:16:25.23 bitrate=N/A speed=18.2x    frame=23861 fps=437 q=-0.0 size=N/A time=00:16:35.20 bitrate=N/A speed=18.2x    frame=24080 fps=436 q=-0.0 size=N/A time=00:16:44.33 bitrate=N/A speed=18.2x    frame=24279 fps=436 q=-0.0 size=N/A time=00:16:52.63 bitrate=N/A speed=18.2x    frame=24537 fps=436 q=-0.0 size=N/A time=00:17:03.39 bitrate=N/A speed=18.2x    frame=24812 fps=437 q=-0.0 size=N/A time=00:17:14.86 bitrate=N/A speed=18.2x    frame=25081 fps=438 q=-0.0 size=N/A time=00:17:26.08 bitrate=N/A speed=18.3x    frame=25293 fps=438 q=-0.0 size=N/A time=00:17:34.92 bitrate=N/A speed=18.3x    frame=25478 fps=437 q=-0.0 size=N/A time=00:17:42.64 bitrate=N/A speed=18.2x    frame=25706 fps=437 q=-0.0 size=N/A time=00:17:52.15 bitrate=N/A speed=18.2x    frame=25936 fps=437 q=-0.0 size=N/A time=00:18:01.74 bitrate=N/A speed=18.2x    frame=26114 fps=437 q=-0.0 size=N/A time=00:18:09.17 bitrate=N/A speed=18.2x    frame=26380 fps=437 q=-0.0 size=N/A time=00:18:20.26 bitrate=N/A speed=18.2x    frame=26606 fps=437 q=-0.0 size=N/A time=00:18:29.69 bitrate=N/A speed=18.2x    frame=26874 fps=438 q=-0.0 size=N/A time=00:18:40.86 bitrate=N/A speed=18.3x    frame=27131 fps=438 q=-0.0 size=N/A time=00:18:51.58 bitrate=N/A speed=18.3x    frame=27372 fps=439 q=-0.0 size=N/A time=00:19:01.64 bitrate=N/A speed=18.3x    frame=27556 fps=438 q=-0.0 size=N/A time=00:19:09.31 bitrate=N/A speed=18.3x    frame=27760 fps=438 q=-0.0 size=N/A time=00:19:17.82 bitrate=N/A speed=18.3x    frame=27997 fps=438 q=-0.0 size=N/A time=00:19:27.70 bitrate=N/A speed=18.3x    frame=28243 fps=438 q=-0.0 size=N/A time=00:19:37.96 bitrate=N/A speed=18.3x    frame=28416 fps=437 q=-0.0 size=N/A time=00:19:45.18 bitrate=N/A speed=18.2x    frame=28649 fps=437 q=-0.0 size=N/A time=00:19:54.90 bitrate=N/A speed=18.2x    frame=28874 fps=437 q=-0.0 size=N/A time=00:20:04.28 bitrate=N/A speed=18.2x    frame=29074 fps=437 q=-0.0 size=N/A time=00:20:12.62 bitrate=N/A speed=18.2x    frame=29278 fps=437 q=-0.0 size=N/A time=00:20:21.13 bitrate=N/A speed=18.2x    frame=29519 fps=437 q=-0.0 size=N/A time=00:20:31.18 bitrate=N/A speed=18.2x    frame=29751 fps=437 q=-0.0 size=N/A time=00:20:40.86 bitrate=N/A speed=18.2x    frame=29999 fps=437 q=-0.0 size=N/A time=00:20:51.20 bitrate=N/A speed=18.2x    frame=30236 fps=437 q=-0.0 size=N/A time=00:21:01.09 bitrate=N/A speed=18.2x    frame=30456 fps=437 q=-0.0 size=N/A time=00:21:10.26 bitrate=N/A speed=18.2x    frame=30697 fps=438 q=-0.0 size=N/A time=00:21:20.32 bitrate=N/A speed=18.3x    frame=30921 fps=438 q=-0.0 size=N/A time=00:21:29.66 bitrate=N/A speed=18.3x    frame=31147 fps=438 q=-0.0 size=N/A time=00:21:39.08 bitrate=N/A speed=18.3x    frame=31349 fps=437 q=-0.0 size=N/A time=00:21:47.51 bitrate=N/A speed=18.2x    frame=31583 fps=437 q=-0.0 size=N/A time=00:21:57.27 bitrate=N/A speed=18.2x    frame=31848 fps=438 q=-0.0 size=N/A time=00:22:08.32 bitrate=N/A speed=18.3x    frame=32121 fps=439 q=-0.0 size=N/A time=00:22:19.71 bitrate=N/A speed=18.3x    frame=32382 fps=439 q=-0.0 size=N/A time=00:22:30.59 bitrate=N/A speed=18.3x    frame=32668 fps=440 q=-0.0 size=N/A time=00:22:42.52 bitrate=N/A speed=18.3x    frame=32895 fps=440 q=-0.0 size=N/A time=00:22:51.99 bitrate=N/A speed=18.3x    frame=33126 fps=440 q=-0.0 size=N/A time=00:23:01.63 bitrate=N/A speed=18.3x    frame=33350 fps=440 q=-0.0 size=N/A time=00:23:10.97 bitrate=N/A speed=18.3x    frame=33598 fps=440 q=-0.0 size=N/A time=00:23:21.31 bitrate=N/A speed=18.4x    frame=33795 fps=440 q=-0.0 size=N/A time=00:23:29.53 bitrate=N/A speed=18.3x    frame=33978 fps=439 q=-0.0 size=N/A time=00:23:37.16 bitrate=N/A speed=18.3x    [Parsed_ssim_10 @ 000002619ceaf900] SSIM Y:0.994406 (22.522491) U:0.993288 (21.731392) V:0.993132 (21.631554) All:0.994007 (22.223578)
[out#0/null @ 00000261902267c0] video:14645KiB audio:266564KiB subtitle:0KiB other streams:0KiB global headers:0KiB muxing overhead: unknown
frame=34083 fps=439 q=-0.0 Lsize=N/A time=00:23:41.54 bitrate=N/A speed=18.3x    
